<?xml version="1.0" encoding="utf-8"?>
<!-- Generator: Adobe Illustrator 20.1.0, SVG Export Plug-In . SVG Version: 6.00 Build 0)  -->
<svg version="1.1" id="Слой_1" xmlns="http://www.w3.org/2000/svg" xmlns:xlink="http://www.w3.org/1999/xlink" x="0px" y="0px"
	 viewBox="0 0 101.8 101.8" style="enable-background:new 0 0 101.8 101.8;" xml:space="preserve">
<style type="text/css">
	.st0{fill:none;stroke:#FFFFFF;stroke-width:6.7593;stroke-opacity:0;}
	.st1{fill:none;stroke:#FFFFFF;stroke-width:6.7593;}
	.st2{font-family:'MyriadPro-Regular';}
	.st3{font-size:6px;}
	.st4{fill:#FFFFFF;}
</style>
<g transform="translate(1 1)">
	<circle class="st0" cx="49.9" cy="49.9" r="20.3">
	
		<animate  accumulate="none" additive="replace" attributeName="r" begin="1.5s" calcMode="linear" dur="3s" fill="remove" repeatCount="indefinite" restart="always" values="6;22">
		</animate>
	
		<animate  accumulate="none" additive="replace" attributeName="stroke-opacity" begin="1.5s" calcMode="linear" dur="3s" fill="remove" repeatCount="indefinite" restart="always" values="1;0">
		</animate>
	
		<animate  accumulate="none" additive="replace" attributeName="stroke-width" begin="1.5s" calcMode="linear" dur="3s" fill="remove" repeatCount="indefinite" restart="always" values="2;0">
		</animate>
	</circle>
	<circle class="st0" cx="49.9" cy="49.9" r="20.3">
	
		<animate  accumulate="none" additive="replace" attributeName="r" begin="3s" calcMode="linear" dur="3s" fill="remove" repeatCount="indefinite" restart="always" values="6;22">
		</animate>
	
		<animate  accumulate="none" additive="replace" attributeName="stroke-opacity" begin="3s" calcMode="linear" dur="3s" fill="remove" repeatCount="indefinite" restart="always" values="1;0">
		</animate>
	
		<animate  accumulate="none" additive="replace" attributeName="stroke-width" begin="3s" calcMode="linear" dur="3s" fill="remove" repeatCount="indefinite" restart="always" values="2;0">
		</animate>
	</circle>
	<circle class="st1" cx="49.9" cy="49.9" r="27">
	
		<animate  accumulate="none" additive="replace" attributeName="r" begin="0s" calcMode="linear" dur="1.5s" fill="remove" repeatCount="indefinite" restart="always" values="6;1;2;3;4;5;6">
		</animate>
	</circle>
</g>
<text transform="matrix(1 0 0 1 44.5404 52.6614)" class="st2 st3">          </text>
<g>
	<path class="st4" d="M37.9,71L37.9,71C37.9,71,38,71,37.9,71l0.1,0.2c0,0.1,0,0.1,0,0.1c0,0.1,0,0.1,0,0.1v0c0,0.1-0.1,1.3-0.2,3.4
		v0h0c1-1.6,1.6-2.8,2.1-3.6l0.1,0c0.1,0,0.1,0.1,0.1,0.1v0c0,0-0.2,0.5-0.7,1.2c-0.6,1-1.1,1.8-1.6,2.4c0.5,1.2,0.9,2.6,1.3,4
		c0.3,1.3,0.5,2.1,0.5,2.3c0,0.1-0.1,0.1-0.1,0.1c-0.1,0-0.2-0.1-0.2-0.4c0-0.2-0.2-1.2-0.6-3c-0.2-0.7-0.5-1.6-0.9-2.9h0l0,0
		c0,1.6-0.1,2.3-0.1,2.3c0,0.1,0,0.1-0.1,0.1h-0.1c-0.1,0-0.1-0.1-0.1-0.1c0-0.3,0.1-1.2,0.1-2.7c0.1-1,0.2-2.3,0.3-3.7
		C37.8,71,37.8,71,37.9,71z"/>
	<path class="st4" d="M40.6,70.8c0.1,0,0.3,0.1,0.5,0.3c0.2,0.2,0.3,0.8,0.3,1.8c0,1.4-0.2,2.7-0.5,3.9c-0.2,0.6-0.4,0.9-0.7,0.9
		h-0.1c-0.3,0-0.5-0.2-0.7-0.7c-0.1-0.3-0.1-0.6-0.1-1v-0.1c0-0.8,0.2-1.8,0.5-3c0-0.1,0-0.2,0-0.2v-0.1c0-0.5,0.2-1,0.5-1.5
		C40.4,70.9,40.5,70.8,40.6,70.8z M40,72.3L40,72.3L40,72.3c0.1-0.3,0.3-0.7,0.4-0.9c0.1-0.1,0.1-0.2,0.2-0.2l0,0v0
		c-0.2,0.4-0.4,0.9-0.6,1.5c-0.3,1.3-0.4,2.2-0.4,2.9V76c0,0.7,0.1,1.1,0.4,1.3c0.1,0.1,0.1,0.1,0.2,0.1h0.1c0.2,0,0.4-0.6,0.7-1.8
		c0.2-1,0.2-1.9,0.2-2.7c0-0.7-0.1-1.3-0.2-1.6c-0.1-0.1-0.2-0.2-0.3-0.2c-0.1,0-0.2,0.2-0.4,0.5C40.2,71.8,40.1,72,40,72.3z"/>
	<path class="st4" d="M42.1,70.9c0,0,0.1,0.2,0.1,0.5c0,0.5-0.1,1.9-0.3,4.4l0.5,0c0.2,0,0.4,0,0.6,0h0c0,0,0.1-0.6,0.1-1.9
		c0.1-2,0.2-2.9,0.3-2.9h0c0,0,0,0,0,0.1c-0.1,0.7-0.1,1.9-0.1,3.6c0,0,0,0.4-0.1,1.2c0,0,0,0.1,0,0.1v0c0,0.1-0.1,0.3-0.1,0.6h0
		c0,0,0,0.1,0,0.1v0.1c0,0.3-0.1,0.6-0.1,0.9c0,0.1-0.1,0.1-0.1,0.1h0c-0.1,0-0.1-0.1-0.1-0.4c0-0.1,0-0.1,0-0.2
		c0.1-0.4,0.1-0.7,0.1-1.1c-0.4,0-0.8,0-1.1-0.1c0,0.6-0.1,1-0.1,1.3c0,0,0,0.1,0,0.1c0,0.1-0.1,0.2-0.1,0.2h0
		c-0.1,0-0.1-0.1-0.1-0.4c0-0.1,0.1-1.7,0.4-4.7C42,71.5,42.1,70.9,42.1,70.9C42.1,70.9,42.1,70.9,42.1,70.9z"/>
	<path class="st4" d="M44.2,71L44.2,71C44.3,71,44.3,71,44.2,71l0.1,0.2c0,0.1,0,0.1,0,0.1c0,0.1,0,0.1,0,0.1v0
		c0,0.1-0.1,1.3-0.2,3.4v0h0c1-1.6,1.6-2.8,2.1-3.6l0.1,0c0.1,0,0.1,0.1,0.1,0.1v0c0,0-0.2,0.5-0.7,1.2c-0.6,1-1.1,1.8-1.6,2.4
		c0.5,1.2,0.9,2.6,1.3,4c0.3,1.3,0.5,2.1,0.5,2.3c0,0.1-0.1,0.1-0.1,0.1c-0.1,0-0.2-0.1-0.2-0.4c0-0.2-0.2-1.2-0.6-3
		c-0.2-0.7-0.5-1.6-0.9-2.9h0l0,0c0,1.6-0.1,2.3-0.1,2.3c0,0.1,0,0.1-0.1,0.1h-0.1c-0.1,0-0.1-0.1-0.1-0.1c0-0.3,0.1-1.2,0.1-2.7
		c0.1-1,0.2-2.3,0.3-3.7C44.2,71,44.2,71,44.2,71z"/>
	<path class="st4" d="M48.3,70.9L48.3,70.9c-0.1,0.7-0.1,1.3-0.3,1.8c-0.4,1.6-0.7,2.7-0.9,3.2c-0.1,0.3-0.3,0.8-0.4,1.4
		c0,0-0.1,0.1-0.1,0.4c0,0-0.1,0.1-0.1,0.1h0c-0.1,0-0.1,0-0.1-0.1c0.2-0.8,0.4-1.5,0.6-1.9c0-0.1,0.1-0.4,0.2-0.8
		c0-0.1-0.1-0.3-0.3-0.5c-0.3-0.5-0.5-1.1-0.7-1.7c-0.2-0.8-0.4-1.4-0.4-1.7c0-0.1,0-0.1,0.1-0.1c0.1,0,0.1,0.2,0.2,0.5
		c0.1,0.6,0.3,1.2,0.6,1.9c0.2,0.5,0.4,0.9,0.6,1.2h0c0.3-1.1,0.6-2.1,0.8-3C48.1,71.1,48.2,70.9,48.3,70.9z"/>
	<path class="st4" d="M49.3,70.9h0.1c0.4,0,0.7,0.3,0.9,0.8c0.1,0.3,0.2,0.6,0.2,0.9v0.2c0,0.8-0.2,1.4-0.7,1.9
		c-0.2,0.2-0.4,0.3-0.6,0.3c-0.1,0-0.2,0-0.4-0.1v0c-0.1,1.3-0.2,2-0.2,2.1c0,0,0,0.2,0,0.4c0,0.1-0.1,0.1-0.1,0.1h0
		c-0.1,0-0.2-0.1-0.2-0.4V77c0-0.1,0.1-1,0.2-2.8c0.1-1.6,0.2-2.5,0.2-2.6l0-0.1l-0.1,0c0,0,0,0-0.1-0.1c0-0.1,0-0.3,0.1-0.4
		c0-0.1,0-0.1,0.1-0.1H49l0,0C49.1,71,49.2,70.9,49.3,70.9z M49.1,71.3c0,0,0,0.1,0,0.1c0,0.6-0.1,1.7-0.2,3.4c0,0,0,0,0,0l0.1,0
		h0.2c0.3,0,0.5-0.2,0.8-0.7c0.2-0.4,0.2-0.8,0.2-1.3c0-0.8-0.2-1.3-0.6-1.5c-0.1,0-0.2-0.1-0.3-0.1C49.2,71.2,49.1,71.2,49.1,71.3z
		"/>
	<path class="st4" d="M52.3,70.9h0.1c0.4,0,0.7,0.1,0.7,0.3c0,0.1,0,0.1-0.1,0.1h0c-0.2,0-0.3-0.1-0.4-0.1h-0.2
		c-0.4,0-0.6,0.4-0.8,1.1c-0.2,0.4-0.3,1-0.4,1.8c0,0.4-0.1,0.8-0.1,1.2v0.4c0,0.7,0.2,1.2,0.5,1.5c0.2,0.2,0.3,0.2,0.4,0.2
		c0.2,0,0.4-0.2,0.8-0.7h0c0.1,0,0.1,0,0.1,0.1c0,0.2-0.2,0.4-0.5,0.7c-0.1,0.1-0.2,0.1-0.4,0.1H52c-0.3,0-0.7-0.3-1-0.9
		c-0.1-0.2-0.2-0.6-0.2-1.1c0-1.5,0.1-2.7,0.4-3.4C51.4,71.4,51.8,70.9,52.3,70.9z"/>
	<path class="st4" d="M55.7,70.9L55.7,70.9c0.4,0,0.6,0.2,0.7,0.6c0,0.1,0,0.2,0,0.4v0.2c0,0.5-0.1,1.1-0.4,1.8
		c-0.1,0.3-0.3,0.6-0.6,0.8c-0.1,0.1-0.2,0.2-0.2,0.2v0c0.3,0.1,0.6,0.3,0.8,0.7c0.1,0.3,0.2,0.6,0.2,0.8c0,0.5-0.1,0.8-0.4,1.1
		c-0.1,0.1-0.2,0.1-0.4,0.1h-0.1c-0.5-0.1-0.7-0.2-0.7-0.3v0c0-0.1,0-0.1,0.1-0.1h0c0.3,0.1,0.6,0.1,0.7,0.1c0.3,0,0.4-0.2,0.5-0.7
		c0-0.1,0-0.2,0-0.2v-0.1c0-0.5-0.2-0.9-0.7-1.2c-0.1-0.1-0.2-0.1-0.3-0.1h0c-0.1,0-0.2,0-0.2,0c-0.1,0-0.1-0.1-0.1-0.1
		c0-0.1,0.1-0.1,0.2-0.2c0.4-0.2,0.8-0.6,1-1.3c0.2-0.6,0.3-1.2,0.3-1.7v0c0-0.5-0.2-0.8-0.6-0.8c-0.3,0-0.5,0.1-0.7,0.3h0
		c0,0,0,0,0,0v0c0.1-0.1,0.2-0.2,0.4-0.3C55.4,71,55.6,70.9,55.7,70.9z"/>
	<path class="st4" d="M58.5,70.4c0.3,0,0.6,0.3,1,0.9c0.2,0.5,0.3,1,0.3,1.5v0.2c0,0.9-0.2,2.1-0.7,3.4c-0.3,0.8-0.6,1.2-0.9,1.2h0
		c-0.3,0-0.6-0.2-0.8-0.6c-0.2-0.4-0.3-0.8-0.3-1.4c0-1.1,0.2-2.4,0.7-4c0.1-0.1,0.1-0.4,0.2-0.7C58.1,70.6,58.3,70.4,58.5,70.4z
		 M57.3,75.5c0,1,0.2,1.6,0.7,1.8c0.1,0,0.1,0.1,0.2,0.1h0c0.3,0,0.6-0.7,1-2.1c0.2-0.9,0.3-1.7,0.3-2.3c0-1.1-0.3-1.8-1-2.3l-0.1,0
		c-0.1,0-0.3,0.2-0.4,0.5c0,0.1-0.1,0.3-0.2,0.6C57.5,73.3,57.3,74.5,57.3,75.5z"/>
	<path class="st4" d="M61.9,70.4c0.3,0,0.6,0.3,1,0.9c0.2,0.5,0.3,1,0.3,1.5v0.2c0,0.9-0.2,2.1-0.7,3.4c-0.3,0.8-0.6,1.2-0.9,1.2h0
		c-0.3,0-0.6-0.2-0.8-0.6c-0.2-0.4-0.3-0.8-0.3-1.4c0-1.1,0.2-2.4,0.7-4c0.1-0.1,0.1-0.4,0.2-0.7C61.6,70.6,61.7,70.4,61.9,70.4z
		 M60.7,75.5c0,1,0.2,1.6,0.7,1.8c0.1,0,0.1,0.1,0.2,0.1h0c0.3,0,0.6-0.7,1-2.1c0.2-0.9,0.3-1.7,0.3-2.3c0-1.1-0.3-1.8-1-2.3l-0.1,0
		c-0.1,0-0.3,0.2-0.4,0.5c0,0.1-0.1,0.3-0.2,0.6C60.9,73.3,60.7,74.5,60.7,75.5z"/>
	<path class="st4" d="M64.6,70.9L64.6,70.9c0.2,0,0.3,0.1,0.3,0.3c0,0,0,0.1,0,0.1v0.1c0,0.5-0.2,1-0.6,1.6
		c-0.2,0.2-0.4,0.4-0.6,0.4c-0.2,0-0.3-0.1-0.4-0.3c0-0.1,0-0.1,0-0.2v-0.1c0-0.4,0.2-1,0.7-1.5C64.3,71,64.5,70.9,64.6,70.9z
		 M63.4,72.8c0,0.3,0.1,0.4,0.3,0.4c0.3,0,0.6-0.3,0.9-1c0.1-0.3,0.1-0.5,0.1-0.7v-0.1c0-0.1,0-0.2-0.1-0.3h-0.1
		c-0.3,0.1-0.6,0.5-1,1.1C63.5,72.4,63.4,72.6,63.4,72.8z M66.4,71L66.4,71c0.1,0,0.1,0,0.1,0.1c0,0.1-0.4,1.1-1.2,3.1
		c0,0-0.5,1.1-1.3,3.1c-0.1,0.2-0.2,0.3-0.2,0.3h0c0.4-1.2,0.8-2.4,1.4-3.7c0.7-1.5,1-2.4,1.1-2.6C66.3,71.1,66.4,71.1,66.4,71z
		 M66.2,74.8L66.2,74.8c0.3,0,0.5,0.2,0.6,0.5l0,0.2c0,0.4-0.2,0.9-0.6,1.4c-0.2,0.2-0.3,0.3-0.5,0.3h-0.1c-0.2,0-0.3-0.1-0.4-0.4
		c0-0.1,0-0.3-0.1-0.6V76c0-0.4,0.2-0.8,0.6-1.1C65.9,74.8,66,74.8,66.2,74.8z M65.4,76.5v0.1c0.1,0.2,0.1,0.3,0.3,0.3
		c0.2,0,0.5-0.3,0.7-0.8c0.1-0.3,0.2-0.5,0.2-0.7c0-0.3-0.1-0.5-0.3-0.5h0c-0.3,0-0.5,0.3-0.7,0.8C65.4,76.1,65.4,76.3,65.4,76.5z"
		/>
</g>
</svg>
